<?xml version="1.0" encoding="utf-8"?>
<!-- Generator: Adobe Illustrator 26.4.1, SVG Export Plug-In . SVG Version: 6.00 Build 0)  -->
<svg version="1.1" id="Layer_1" xmlns="http://www.w3.org/2000/svg" xmlns:xlink="http://www.w3.org/1999/xlink" x="0px" y="0px"
	 viewBox="0 0 1176.9 250.6" style="enable-background:new 0 0 1176.9 250.6;" xml:space="preserve">
<style type="text/css">
	.st0{fill:#133A72;}
	.st1{fill:#2A2A2A;}
	.st2{fill:#D23D3D;}
	.st3{fill:#DC6464;}
	.st4{fill:#7687A9;}
	.st5{fill:#E38484;}
	.st6{fill:#F2C1C1;}
	.st7{fill:#E99696;}
	.st8{fill:#DB6262;}
	.st9{fill:#E67D7D;}
	.st10{fill:#F5CECE;}
	.st11{fill:#E68B8B;}
	.st12{fill:#DD5F5F;}
</style>
<path class="st0" d="M630.8,193.8c6.8-20.1,13.6-40.2,20.4-60.3c12.1-35.8,24.2-71.6,36.4-107.4c1.2-3.4,0.4-2.8,3.9-2.8
	c11.7,0,23.4,0,35,0c0.6,0,1.3,0,1.9,0c0.6,0,0.9,0.3,0.9,0.9c0,0.5,0,1,0,1.4c-0.4,26.9-0.9,53.8-1.3,80.7
	c-0.2,15.1-0.5,30.2-0.7,45.3c-0.2,13.3-0.4,26.5-0.6,39.8c0,0.9-0.2,1.7,0.1,2.7c0.7-0.5,0.7-1.3,0.9-1.9
	c17.5-55.4,34.9-110.7,52.4-166.1c0-0.1,0-0.2,0.1-0.2c1-2.8,0.2-2.5,3.4-2.5c11,0,22.1,0,33.1,0c0.8,0,1.6,0,2.4,0
	c0.2,1.1-0.3,1.9-0.6,2.8c-20.5,58.3-41.1,116.6-61.6,174.9c-3.9,11.1-7.8,22.1-11.7,33.2c-0.7,2.1-0.3,1.9-2.6,1.9
	c-15,0-30.1,0-45.1,0c-0.4,0-0.8,0-1.2,0c-0.7,0-1-0.3-1-1c0-0.5,0-1,0-1.4c0.6-32.7,1.1-65.5,1.7-98.2c0.3-15.2,0.5-30.5,0.7-45.8
	c0-0.6,0-1.2,0-2.2c-0.7,0.8-0.8,1.5-1.1,2.1c-16,47.9-32,95.7-48,143.6c-1.1,3.3-0.2,2.8-3.9,2.8c-14.5,0-29,0-43.4,0
	c-0.6,0-1.1,0-1.7,0c-0.9,0-1.4-0.2-1.3-1.2c0.1-0.6,0-1.1,0-1.7c0-55.2,0-110.4,0.1-165.5c0-13.9,0-27.8,0-41.7
	c0-3-0.1-2.6,2.6-2.6c11.7,0,23.4,0,35,0c0.5,0,1,0,1.4,0c0.8,0,1.2,0.3,1.1,1.1c-0.1,1.4-0.1,2.7-0.2,4.1c-0.4,8-0.8,15.9-1.2,23.9
	c-0.8,15.5-1.5,30.9-2.3,46.4c-0.5,10.9-1,21.9-1.6,32.8c-0.7,15-1.5,30-2.3,45c-0.2,4.9-0.5,9.9-0.7,14.8c-0.3,0.8-0.2,1.7-0.1,2.6
	c0,0.1-0.1,0.5,0.2,0.4C630.5,194.3,630.6,193.9,630.8,193.8z"/>
<path class="st1" d="M862.6,193.5c0.2-0.6,0.4-1.3,0.7-1.9c18.7-55.2,37.4-110.4,56.2-165.6c1.2-3.4,0.3-2.7,3.9-2.8
	c11.3,0,22.6,0,33.8,0c0.9,0,1.8,0,2.7,0c0.2,1.1-0.4,1.9-0.7,2.8c-25.3,67.6-50.7,135.3-76,202.9c-0.7,1.9-1.5,3.7-2.1,5.6
	c-0.4,1.1-0.9,1.5-2.1,1.4c-3.4-0.1-6.9,0-10.3,0c-12.1,0-24.2,0-36.2,0c-0.6,0-1.1,0-1.7,0c-1,0.1-1.2-0.3-1.2-1.2
	c0-3.1-0.2-6.2-0.3-9.3c-0.4-18.8-0.8-37.7-1.2-56.5c-0.7-32-1.4-64-2.2-96c-0.4-15.7-0.7-31.5-1-47.2c0-0.5,0-1,0-1.4
	c0-0.7,0.3-1,1-1c0.5,0,1,0,1.4,0c11.8,0,23.5,0,35.3,0c0.4,0,0.8,0,1.2,0c0.9-0.1,1.3,0.3,1.3,1.2c0,0.6,0,1.3,0,1.9
	c-0.6,37-1.3,74.1-1.9,111.1c-0.3,17.8-0.6,35.6-0.9,53.4c0,0.8,0,1.7,0,2.5C862.3,193.5,862.4,193.5,862.6,193.5z"/>
<path class="st0" d="M72.8,117.6c17.5,0,34.7,0,51.9,0c0.4,0.9,0.1,1.6,0,2.3c-1.4,8-2.8,16-4.2,24c-0.3,2-0.3,2-2.5,2
	c-15.8,0-31.7,0-47.5,0c-3,0-2.6-0.7-3.2,2.8c-3,17-6,34.1-9,51.1c-2,11.3-4,22.6-5.9,33.9C52,236,52,236,49.8,236
	c-11.7,0-23.4,0-35,0c-0.5,0-1.1,0.1-1.7-0.2c-0.3-0.7,0-1.4,0.1-2c4.8-27.2,9.6-54.4,14.4-81.5c4.6-26.3,9.3-52.6,13.9-78.9
	c2.8-16,5.7-32,8.5-48.1c0.3-2,0.3-2,2.4-2c33,0,66.1,0,99.1,0c0.6,0,1.3-0.1,2,0.3c-0.8,4.5-1.5,9.1-2.3,13.6
	c-0.8,4.5-1.6,9-2.4,13.4c-0.4,2.4-0.4,2.4-2.8,2.4c-19.7,0-39.4,0-59,0c-2.7,0-2.7,0-3.2,2.7c-3.1,17.7-6.2,35.4-9.3,53
	C73.9,111.6,73.4,114.5,72.8,117.6z"/>
<path class="st0" d="M179.3,206.3c18.9,0,37.6,0,56.4,0c0.3,1.6-0.2,3-0.5,4.3c-1.3,7.9-2.8,15.9-4.2,23.8c-0.2,1.2-0.6,1.7-1.8,1.6
	c-0.5-0.1-1,0-1.4,0c-29.8,0-59.7,0-89.5,0c-0.9,0-1.9,0.2-3-0.3c0.6-3.5,1.2-7,1.8-10.5c2.5-14.1,5-28.1,7.5-42.2
	c2.7-15.1,5.3-30.2,8-45.2c2.5-14.1,4.9-28.1,7.4-42.2c2.6-15,5.3-30,8-45c1.5-8.5,3-17,4.5-25.4c0.3-1.9,0.3-1.9,2.2-1.9
	c11.8,0,23.7,0,35.5,0c0.3,0,0.6,0,1.3,0.1c-1.3,8.8-3,17.4-4.5,26.1c-1.5,8.7-3.1,17.4-4.6,26.1c-1.5,8.7-3,17.4-4.6,26.2
	c-1.5,8.6-3.1,17.3-4.6,25.9c-1.5,8.7-3,17.4-4.6,26.2c-1.5,8.7-3.1,17.4-4.6,26.1C182.4,188.7,180.8,197.4,179.3,206.3z"/>
<path class="st0" d="M323.9,191.4C293.5,150,296.3,88.3,338.2,49.5c41.3-38.2,100.3-35.6,136.6-7.9c-0.3,0.7-0.9,1.1-1.4,1.6
	c-8.8,8.8-17.7,17.6-26.5,26.3c-1.9,1.9-1.3,1.7-3.5,0.5c-39.1-21.1-87.5,0.9-97,44.1c-3.5,16-1.4,31.2,6.2,45.7
	c0.2,0.4,0.5,0.8,0.7,1.3c0.3,0.5,0.3,1-0.2,1.5c-0.2,0.2-0.5,0.4-0.7,0.7c-9.2,9.1-18.4,18.2-27.6,27.3
	C324.6,190.8,324.3,191,323.9,191.4z"/>
<path class="st1" d="M943,235.9c2.1-12.2,4.2-24.1,6.3-36c2.3-13.2,4.7-26.4,7-39.6c2.5-14.1,5-28.1,7.4-42.2
	c2.5-14.1,5-28.1,7.4-42.2c2.5-14.1,5-28.1,7.4-42.2c0.5-3.1,1.1-6.1,1.6-9.2c0.1-0.9,0.4-1.4,1.5-1.4c12.3,0,24.6,0,36.9,0.1
	c0.1,0,0.3,0.1,0.6,0.3c-0.6,3.2-1.1,6.5-1.7,9.8c-2.5,14.1-5,28.3-7.5,42.4c-2.5,14-4.9,28-7.4,41.9c-2.5,14.1-5,28.1-7.5,42.2
	c-2.7,15.1-5.3,30.2-8,45.2c-1.7,9.5-3.3,19-5,28.5c-0.1,0.5-0.2,0.9-0.3,1.4c-0.1,0.8-0.6,1.1-1.3,1c-0.2,0-0.5,0-0.7,0
	c-11.8,0-23.7,0-35.5,0C944,236,943.6,236,943,235.9z"/>
<path class="st0" d="M342.6,211.3c0.5-0.6,1.2-0.8,1.8-1.1c12.8-6.6,25.6-13.1,38.3-19.7c1.2-0.6,2.2-0.7,3.5-0.2
	c38.1,15.4,80.4-6.3,90.1-46.2c0.3-1.3,0.8-2.2,2.1-2.9c13-6.6,25.9-13.3,38.8-19.9c0.5-0.2,1-0.5,1.5-0.7
	c3.5,31-10.1,77.4-55.3,102.4C422.4,245.6,373.5,237.9,342.6,211.3z"/>
<path class="st2" d="M292.9,176.6c-2.4,3.9-4.8,7.7-7.1,11.7c-3.1,5.2-5.9,10.6-8.1,16.3c-0.9,2.2-1.6,4.5-1.9,6.9
	c-0.1,0.5-0.2,0.9-0.2,1.4c-0.3,5,2.2,7.5,7.5,7.1c3.4-0.3,6.7-1.3,9.9-2.6c8.7-3.4,16.7-7.9,24.7-12.7
	c15.9-9.6,30.9-20.4,45.7-31.7c41.1-31.6,82.4-63.1,123.6-94.6c0.4-0.3,0.9-0.7,1.6-1.2c2.9,4.3,5.7,8.5,8.6,12.8
	c-2.4,1.7-4.6,3.4-6.9,5c-43.6,31.5-87.2,63-130.8,94.4c-8,5.8-16.6,10.6-25,15.6c-12.5,7.4-25.2,14.4-38.7,20.1
	c-5.3,2.2-10.7,4.2-16.4,5.3c-2,0.4-4,0.5-6,0.3c-4.7-0.3-7.3-3.2-6.9-7.9c0.2-2.7,0.9-5.3,1.9-7.9c1.7-4.5,3.9-8.8,6.3-12.9
	c5.3-9.1,11.2-17.7,17.6-26C292.9,176,293.1,176.1,292.9,176.6z"/>
<path class="st2" d="M581.3,13.4c-0.6,8.4-3,15.8-7,22.6c-4.9,8.6-11.6,15.8-19.3,22.1c-14.6,11.9-31,20.4-48.6,26.9
	c-1.2,0.4-1.8,0.2-2.6-0.7c-3-3.9-6.2-7.7-9.3-11.6c-0.6-0.8-1-1.4-0.3-2.5c9.8-15.1,20.9-29.1,35-40.4c9.4-7.5,19.7-13.4,31.4-16.4
	c5.8-1.5,11.6-2.1,17.6-1.7c0.5,0,1,0.1,1.4,0.1C581.3,12.2,581.4,12.2,581.3,13.4z"/>
<path class="st2" d="M461.8,68.2c2.1-4.2,5.1-7.7,8.2-11.1c10.8-11.7,24.1-19.6,38.9-25.1c2.9-1.1,5.8-2.1,9.1-2.9
	c-0.5,1-1.2,1.5-1.8,2c-7.6,6.9-14.7,14.2-20.9,22.4c-3,4-5.7,8.1-7.6,12.7c-0.5,1.2-1.1,1.3-2.2,1.1c-5.4-1-10.8-1.2-16.2-0.3
	c-2.4,0.4-4.6,1.2-6.9,2C461.9,68.9,461.7,68.7,461.8,68.2z"/>
<path class="st2" d="M550.2,72.6c-8.1,16.5-19.6,29.8-35.8,38.8c-3.4,1.9-6.9,3.4-10.5,4.5c-0.4,0.1-0.9,0.2-1.3,0.3
	c-0.5-0.5,0-0.8,0.2-1.1c3.5-4.8,5-10.3,5.8-16c0.3-2.3,0.6-4.6,0.4-6.9c0-0.9,0.2-1.4,1.2-1.6c10.6-1.6,20-6.4,29.1-11.8
	c3.2-1.9,6.2-3.9,9.3-5.9c0.5-0.3,1-0.9,1.6-0.9c0.1,0.1,0.2,0.2,0.1,0.3C550.3,72.5,550.2,72.6,550.2,72.6z"/>
<path class="st3" d="M292.9,176.6c-0.2-0.2-0.4-0.4-0.5-0.6c0.6-1.3,1.6-2.3,2.4-3.3c0.4-0.1,0.7,0,0.5,0.5
	C294.6,174.4,294,175.7,292.9,176.6z"/>
<path class="st4" d="M630.8,193.8c0.1,0.6-0.2,1-0.8,1.7c-0.2-1.5-0.3-2.8,0.3-4.1C630.7,192.1,630,193.1,630.8,193.8z"/>
<path class="st5" d="M295.3,173.2c-0.2-0.2-0.3-0.3-0.5-0.5c0.3-0.6,0.7-1.1,1.2-1.5c0.2-0.2,0.4-0.2,0.6,0
	C296.3,172,295.9,172.7,295.3,173.2z"/>
<path class="st6" d="M299.1,167.4c0,0.7-0.3,1.2-0.9,1.4c-0.2,0.2-0.3,0.2-0.5,0C298,168.2,298.4,167.7,299.1,167.4L299.1,167.4z"/>
<path class="st7" d="M296.3,170.8c0.3-0.7,0.6-1.2,1.4-1.5l0,0c0,0.7-0.3,1.1-0.9,1.4C296.7,171,296.5,171,296.3,170.8z"/>
<path class="st8" d="M461.8,68.2c0.2,0.2,0.4,0.4,0.6,0.6c-0.3,0.3-0.6,0.6-1,0.3C461.1,68.7,461.5,68.4,461.8,68.2z"/>
<path class="st9" d="M550.2,72.6c0-0.2,0-0.3,0-0.5c0.1-0.1,0.2-0.2,0.2-0.3C550.8,72.2,550.4,72.3,550.2,72.6z"/>
<path class="st10" d="M299.1,167.4c0.1-0.1,0.1-0.1,0.2-0.2c0,0,0,0.1,0,0.1C299.2,167.4,299.2,167.4,299.1,167.4
	C299.1,167.4,299.1,167.4,299.1,167.4z"/>
<path class="st11" d="M297.7,168.9c0.2,0,0.3,0,0.5,0c-0.1,0.3-0.2,0.5-0.5,0.5c0,0,0,0,0,0C297.6,169.2,297.7,169.1,297.7,168.9z"
	/>
<path class="st12" d="M296.3,170.8c0.2,0,0.4,0,0.5,0c-0.1,0.1-0.1,0.3-0.2,0.4c-0.2,0-0.4,0-0.6,0
	C296.1,171.1,296.2,171,296.3,170.8z"/>
<path class="st1" d="M1017.8,235.8c1.3-7.7,2.7-15.3,4-22.9c2.3-13.2,4.7-26.4,7-39.6c2.5-14,4.9-28,7.4-41.9
	c2.5-14.1,5-28.3,7.5-42.4c2.5-14,4.9-28,7.4-41.9c1.2-6.9,2.4-13.8,3.7-20.7c0.1-0.3,0.1-0.6,0.2-0.9c0.4-2.1,0.4-2.1,2.5-2.1
	c9,0,17.9,0,26.9,0c17.3,0,34.6,0,51.8,0c5.1,0,10.1,0.4,14.9,1.8c0.5,0.1,0.9,0.3,1.4,0.4c9.7,3.2,15,10.3,15.5,20.5
	c0.3,5.2-0.7,10.3-1.6,15.4c-2.5,14.1-5,28.3-7.5,42.4c-2.5,14.1-5,28.1-7.5,42.2c-2.3,13.1-4.6,26.2-7,39.3
	c-1.4,7.6-2.3,15.3-4.3,22.8c-2.8,10.3-8.5,18.5-18.4,23.3c-4.5,2.2-9.3,3.4-14.2,4.1c-3.3,0.4-6.7,0.5-10.1,0.5
	c-25.6,0-51.2,0-76.8,0C1019.8,236,1018.8,236.1,1017.8,235.8z M1063.6,207.7c5.9,0,11.8,0,17.8,0c4.1,0,8.2,0.1,12.2-0.1
	c5.6-0.2,7.9-2.3,9.1-7.7c0-0.2,0-0.3,0.1-0.5c1-5.6,2-11.1,3-16.7c3.5-19.5,6.9-38.9,10.4-58.4c3.7-20.7,7.3-41.5,11-62.2
	c0.3-1.8,0.7-3.6,0.6-5.5c-0.2-2.7-1.3-4.1-3.9-4.7c-1.2-0.2-2.4-0.4-3.6-0.4c-9.8,0-19.7,0-29.5-0.1c-1.3,0-1.6,0.5-1.8,1.6
	c-0.8,4.6-1.6,9.3-2.4,13.9c-2.5,14-4.9,28-7.4,41.9c-2.5,14.1-5,28.3-7.5,42.4c-2.3,13.1-4.6,26.2-6.9,39.3c-1,5.6-2,11.1-2.9,16.7
	C1062.3,207.8,1063,207.7,1063.6,207.7z"/>
</svg>
