<?xml version="1.0" encoding="UTF-8"?><svg id="Layer_2" xmlns="http://www.w3.org/2000/svg" viewBox="0 0 314.72 224.7"><defs><style>.cls-1{fill:#133a72;}.cls-2{fill:#d23d3d;}</style></defs><g id="Layer_1-2"><path class="cls-1" d="M57.31,179.79c-30.39-41.38-27.67-103.11,14.29-141.86C112.91-.23,171.92,2.37,208.16,30c-.26,.7-.88,1.1-1.38,1.59-8.84,8.79-17.68,17.58-26.54,26.35-1.94,1.92-1.26,1.72-3.54,.49-39.05-21.05-87.49,.91-97,44.09-3.52,15.95-1.35,31.24,6.22,45.74,.22,.42,.46,.84,.7,1.25,.32,.55,.33,1.04-.17,1.49-.24,.21-.46,.45-.68,.67-9.19,9.12-18.38,18.23-27.58,27.35-.22,.22-.48,.41-.88,.76Z"/><path class="cls-1" d="M75.94,199.67c.48-.57,1.18-.8,1.82-1.13,12.78-6.58,25.57-13.13,38.33-19.75,1.24-.65,2.23-.71,3.55-.17,38.07,15.37,80.35-6.34,90.07-46.22,.32-1.31,.82-2.23,2.12-2.89,12.95-6.59,25.86-13.26,38.79-19.9,.49-.25,.99-.46,1.52-.71,3.5,30.98-10.11,77.41-55.28,102.4-41.07,22.72-89.94,15.03-120.92-11.63Z"/><path class="cls-2" d="M26.32,165.03c-2.36,3.89-4.77,7.75-7.07,11.67-3.07,5.24-5.92,10.59-8.09,16.28-.86,2.24-1.56,4.52-1.93,6.9-.07,.47-.16,.95-.18,1.42-.26,4.96,2.15,7.46,7.54,7.06,3.45-.26,6.72-1.34,9.93-2.59,8.68-3.36,16.75-7.91,24.68-12.69,15.9-9.59,30.95-20.39,45.66-31.69,41.13-31.6,82.36-63.07,123.56-94.59,.44-.34,.9-.65,1.6-1.15,2.86,4.26,5.69,8.46,8.6,12.79-2.37,1.72-4.61,3.37-6.87,5-43.6,31.49-87.2,62.98-130.82,94.44-7.98,5.75-16.56,10.57-25.03,15.56-12.53,7.38-25.23,14.44-38.66,20.11-5.3,2.24-10.68,4.23-16.38,5.29-1.98,.37-3.97,.47-5.97,.34-4.73-.3-7.27-3.22-6.88-7.94,.22-2.72,.93-5.34,1.89-7.89,1.69-4.5,3.87-8.76,6.27-12.91,5.26-9.06,11.16-17.69,17.58-25.96,.46-.08,.69,.06,.54,.56Z"/><path class="cls-2" d="M314.71,1.79c-.64,8.39-3.03,15.76-6.97,22.65-4.95,8.64-11.6,15.82-19.26,22.09-14.55,11.91-31.03,20.39-48.6,26.9-1.17,.43-1.83,.24-2.59-.74-3.05-3.9-6.18-7.74-9.3-11.58-.65-.79-.98-1.4-.29-2.47,9.78-15.09,20.86-29.06,35.01-40.37,9.39-7.5,19.65-13.35,31.38-16.43,5.77-1.52,11.62-2.11,17.57-1.73,.48,.03,.96,.06,1.43,.15,1.65,.3,1.68,.35,1.63,1.53Z"/><path class="cls-2" d="M195.18,56.57c2.14-4.15,5.07-7.74,8.22-11.14,10.8-11.7,24.07-19.6,38.87-25.13,2.9-1.09,5.84-2.1,9.13-2.94-.49,1-1.21,1.45-1.79,1.99-7.57,6.91-14.71,14.22-20.91,22.4-3,3.96-5.75,8.07-7.59,12.71-.46,1.16-1.08,1.3-2.19,1.09-5.38-1.03-10.79-1.19-16.22-.34-2.39,.37-4.62,1.22-6.88,2.01-.56,.14-.77-.08-.64-.64Z"/><path class="cls-2" d="M283.56,60.96c-8.09,16.48-19.57,29.85-35.81,38.83-3.36,1.86-6.87,3.39-10.54,4.55-.44,.14-.91,.22-1.32,.31-.45-.53-.04-.81,.16-1.08,3.53-4.77,5.01-10.28,5.76-16.04,.3-2.3,.55-4.6,.44-6.92-.05-.93,.17-1.4,1.24-1.56,10.64-1.6,20.02-6.4,29.13-11.76,3.17-1.86,6.2-3.94,9.3-5.92,.53-.34,.95-.87,1.65-.91,.13,.11,.18,.23,.13,.34-.05,.11-.09,.17-.14,.17Z"/></g></svg>