<?xml version="1.0" encoding="utf-8"?>
<!-- Generator: Adobe Illustrator 27.1.1, SVG Export Plug-In . SVG Version: 6.00 Build 0)  -->
<svg version="1.1" xmlns="http://www.w3.org/2000/svg" xmlns:xlink="http://www.w3.org/1999/xlink" x="0px" y="0px"
	 viewBox="0 0 500 500" style="enable-background:new 0 0 500 500;" xml:space="preserve">
<style type="text/css">
	.st0{fill:#92E3A9;}
	.st1{opacity:0.7;fill:#FFFFFF;}
	.st2{fill:none;stroke:#263238;stroke-miterlimit:10;}
	.st3{opacity:0.22;fill:#FFFFFF;}
	.st4{fill:#949494;}
	.st5{fill:#263238;}
	.st6{fill:none;stroke:#263238;stroke-width:3;stroke-miterlimit:10;}
	.st7{fill:#263238;stroke:#263238;stroke-miterlimit:10;}
	.st8{fill:#C2C2C2;stroke:#263238;stroke-miterlimit:10;}
	.st9{fill:#FFFFFF;stroke:#263238;stroke-miterlimit:10;}
	.st10{fill:#FFFFFF;stroke:#263238;stroke-width:2;stroke-miterlimit:10;}
	.st11{fill:#92E3A9;stroke:#263238;stroke-miterlimit:10;}
	.st12{fill:#6B6B6B;stroke:#263238;stroke-miterlimit:10;}
	.st13{opacity:0.3;}
</style>
<g id="Background_Simple">
	<g>
		<path class="st0" d="M466.5,377.4c35.6-84.2,40.1-203.1-21.2-277c-33.8-40.8-87-54.3-137.8-57.3c-45.5-2.7-94.3-1.6-135.6,19.9
			C101.7,99.4,100,186.2,47.5,237.4C5.1,278.6-12.4,337.5,23.7,414.9C59.9,492.2,127,509.8,193.1,485c66.1-24.8,96-29.9,175.6-17.5
			c36.5,5.7,63.1-21.7,79.1-51.2C454.7,403.6,461,390.6,466.5,377.4z"/>
		<path class="st1" d="M466.5,377.4c35.6-84.2,40.1-203.1-21.2-277c-33.8-40.8-87-54.3-137.8-57.3c-45.5-2.7-94.3-1.6-135.6,19.9
			C101.7,99.4,100,186.2,47.5,237.4C5.1,278.6-12.4,337.5,23.7,414.9C59.9,492.2,127,509.8,193.1,485c66.1-24.8,96-29.9,175.6-17.5
			c36.5,5.7,63.1-21.7,79.1-51.2C454.7,403.6,461,390.6,466.5,377.4z"/>
	</g>
</g>
<g id="Clouds">
	<g>
		<path class="st2" d="M325.4,52c-4.8-21.4-29.4-37.3-50.8-34.2c-5.3,0.8-10.6,2.8-14.6,6.5c-5.5,5-4.2,10.8-6.9,17
			c-0.8,1.7-2.2,3.3-4.1,3.6c-5.3,0.9-9.6-4.4-15-4.4c-4,0-9.2,2.2-11.5,5.7c-2.1,3.2-0.6,8.9-4.4,11.1c-4.2,2.4-9.4-2.2-13.9-0.5
			c-5.7,2.1-3.1,6.2-5.2,8.8c-2.1,2.6-6.2,1.5-11.9,1c-5.7-0.5-10.3,6.2-10.3,6.2h179c0,0,1.5-2.6-5.2-12.9
			c-6.7-10.3-16-3.1-20.1-3.1C326.5,56.7,325.4,52.1,325.4,52z"/>
		<path class="st2" d="M137.5,128.7c-3.2-14.5-20-25.3-34.5-23.3c-3.6,0.5-7.2,1.9-9.9,4.4c-3.7,3.4-2.8,7.3-4.7,11.6
			c-0.5,1.2-1.5,2.2-2.8,2.4c-3.6,0.6-6.5-3-10.2-3c-2.7,0-6.3,1.5-7.8,3.9c-1.4,2.2-0.4,6.1-3,7.5c-2.9,1.6-6.4-1.5-9.5-0.4
			c-3.9,1.4-2.1,4.2-3.5,6c-1.4,1.8-4.2,1.1-8.1,0.7c-3.9-0.4-7,4.2-7,4.2h121.6c0,0,1.1-1.8-3.5-8.8c-4.6-7-10.9-2.1-13.7-2.1
			C138.2,131.8,137.5,128.7,137.5,128.7z"/>
		<path class="st2" d="M474.6,195.7c-2.1-9.6-13.2-16.8-22.9-15.4c-2.4,0.3-4.8,1.2-6.6,2.9c-2.5,2.3-1.9,4.8-3.1,7.7
			c-0.3,0.8-1,1.5-1.8,1.6c-2.4,0.4-4.3-2-6.8-2c-1.8,0-4.1,1-5.2,2.6c-0.9,1.5-0.3,4-2,5c-1.9,1.1-4.2-1-6.3-0.2
			c-2.6,0.9-1.4,2.8-2.3,3.9c-0.9,1.2-2.8,0.7-5.3,0.5c-2.6-0.2-4.6,2.8-4.6,2.8h80.6c0,0,0.7-1.2-2.3-5.8c-3-4.6-7.2-1.4-9.1-1.4
			C475.1,197.8,474.6,195.7,474.6,195.7z"/>
	</g>
</g>
<g id="Mountains">
	<g>
		<g>
			<path class="st2" d="M8.7,317c0,0,178.9-119.1,192.2-116.9c13.3,2.2,137.7,99.3,137.7,99.3"/>
			<path class="st2" d="M158.8,221.2c0,0,10-3.3,10-0.6c0,2.8-3.9,8.3,0,8.9c3.9,0.6,25.5-12.7,25.5-12.7s2.2,10.5,6.6,11.6
				c4.4,1.1,5-9.4,5-9.4l5.5,4.4v-6.1l9.6,3.5l-0.2-8"/>
		</g>
		<g>
			<path class="st2" d="M243.2,361.6c0,0,178.9-119.1,192.2-116.9c13.3,2.2,56,36.3,56,36.3"/>
			<path class="st2" d="M393.3,265.8c0,0,10-3.3,10-0.6c0,2.8-3.9,8.3,0,8.9c3.9,0.6,25.5-12.7,25.5-12.7s2.2,10.5,6.6,11.6
				c4.4,1.1,5-9.4,5-9.4l5.5,4.4v-6.1l9.6,3.5l-0.2-8"/>
		</g>
	</g>
</g>
<g id="Trees">
	<g>
		<path class="st0" d="M377.6,321.1c0,0,0,0,1.5-6.1c1.5-6.1,0-39.3,0.4-42c0.4-2.7-5.7,13.7-5.7,13.7s1.9-7.6,2.3-12.6
			c0.2-3.2,1.1-19.6,1.5-32.6c-0.5-5-1-10.1-1.6-15.1c-1.6,4-3.8,13.8-3.8,13.8s-1.1-33.6,0-37.4c1.1-3.8-5,5.7-5,5.7
			s1.9-14.1,2.3-19.8c0.2-3.4-1-12.3-2.1-19.6c-0.7-3.4-1.4-6.7-2.1-9.9c-1.5,3-4.9,12.4-4.6,11.2c0.4-1.5,0-26.7,0-26.7l0.3-0.4
			c-3.5-10.7-7.3-17.2-11.2-17.2c-3.9,0-7.7,6.4-11.2,17l0.4,0.5c0,0-0.4,25.2,0,26.7c0.3,1.2-3.2-8.6-4.7-11.4
			c-0.6,2.5-1.1,5.1-1.7,7.7c-1.1,7.6-2.6,18.2-2.4,22c0.4,5.7,2.3,19.8,2.3,19.8s-6.1-9.5-5-5.7c1.1,3.8,0,37.4,0,37.4
			s-2.3-10.3-3.9-14c-0.5,4.7-1,9.5-1.5,14.2c0.4,13.1,1.3,30.4,1.6,33.7c0.4,5,2.3,12.6,2.3,12.6s-6.1-16.4-5.7-13.7
			c0.4,2.7-1.1,35.9,0.4,42c1.5,6.1,1.5,6.1,1.5,6.1l-4-3.3c0.7,55.5,14.6,49.9,31.6,49.9c17,0,30.9,5.6,31.6-49.7L377.6,321.1z"/>
		<path class="st3" d="M377.6,321.1c0,0,0,0,1.5-6.1c1.5-6.1,0-39.3,0.4-42c0.4-2.7-5.7,13.7-5.7,13.7s1.9-7.6,2.3-12.6
			c0.2-3.2,1.1-19.6,1.5-32.6c-0.5-5-1-10.1-1.6-15.1c-1.6,4-3.8,13.8-3.8,13.8s-1.1-33.6,0-37.4c1.1-3.8-5,5.7-5,5.7
			s1.9-14.1,2.3-19.8c0.2-3.4-1-12.3-2.1-19.6c-0.7-3.4-1.4-6.7-2.1-9.9c-1.5,3-4.9,12.4-4.6,11.2c0.4-1.5,0-26.7,0-26.7l0.3-0.4
			c-3.5-10.7-7.3-17.2-11.2-17.2c-3.9,0-7.7,6.4-11.2,17l0.4,0.5c0,0-0.4,25.2,0,26.7c0.3,1.2-3.2-8.6-4.7-11.4
			c-0.6,2.5-1.1,5.1-1.7,7.7c-1.1,7.6-2.6,18.2-2.4,22c0.4,5.7,2.3,19.8,2.3,19.8s-6.1-9.5-5-5.7c1.1,3.8,0,37.4,0,37.4
			s-2.3-10.3-3.9-14c-0.5,4.7-1,9.5-1.5,14.2c0.4,13.1,1.3,30.4,1.6,33.7c0.4,5,2.3,12.6,2.3,12.6s-6.1-16.4-5.7-13.7
			c0.4,2.7-1.1,35.9,0.4,42c1.5,6.1,1.5,6.1,1.5,6.1l-4-3.3c0.7,55.5,14.6,49.9,31.6,49.9c17,0,30.9,5.6,31.6-49.7L377.6,321.1z"/>
		<polygon class="st4" points="369.2,299.4 350.6,326 349.7,273 368.8,251.3 349.7,267.5 348.9,219.6 346.9,292.2 331.4,271.5 
			346.7,301.3 342.7,447.3 352.5,447.3 350.8,338.3 		"/>
	</g>
	<g>
		<path class="st0" d="M301.9,330.1c0,0,0,0,1.4-5.7c1.4-5.7,0-36.5,0.4-39c0.4-2.5-5.3,12.8-5.3,12.8s1.8-7.1,2.1-11.7
			c0.2-3,1.1-18.2,1.4-30.3c-0.4-4.7-0.9-9.3-1.4-14c-1.5,3.7-3.5,12.8-3.5,12.8s-1.1-31.2,0-34.7c1.1-3.5-4.6,5.3-4.6,5.3
			s1.8-13.1,2.1-18.4c0.2-3.1-0.9-11.4-1.9-18.2c-0.6-3.2-1.3-6.2-2-9.2c-1.4,2.8-4.5,11.5-4.3,10.4c0.4-1.4,0-24.8,0-24.8l0.3-0.4
			c-3.2-9.9-6.8-15.9-10.4-15.9c-3.7,0-7.2,6-10.4,15.8l0.4,0.5c0,0-0.4,23.4,0,24.8c0.3,1.1-3-7.9-4.4-10.6
			c-0.5,2.3-1.1,4.7-1.6,7.2c-1,7.1-2.5,16.9-2.2,20.4c0.4,5.3,2.1,18.4,2.1,18.4s-5.7-8.9-4.6-5.3c1.1,3.5,0,34.7,0,34.7
			s-2.1-9.5-3.6-13c-0.5,4.4-0.9,8.8-1.4,13.2c0.3,12.2,1.2,28.3,1.4,31.3c0.4,4.6,2.1,11.7,2.1,11.7s-5.7-15.2-5.3-12.8
			c0.4,2.5-1.1,33.3,0.4,39c1.4,5.7,1.4,5.7,1.4,5.7l-3.8-3.1c0.7,51.5,13.6,46.3,29.4,46.3c15.8,0,28.7,5.2,29.4-46.2L301.9,330.1z
			"/>
		<path class="st3" d="M301.9,330.1c0,0,0,0,1.4-5.7c1.4-5.7,0-36.5,0.4-39c0.4-2.5-5.3,12.8-5.3,12.8s1.8-7.1,2.1-11.7
			c0.2-3,1.1-18.2,1.4-30.3c-0.4-4.7-0.9-9.3-1.4-14c-1.5,3.7-3.5,12.8-3.5,12.8s-1.1-31.2,0-34.7c1.1-3.5-4.6,5.3-4.6,5.3
			s1.8-13.1,2.1-18.4c0.2-3.1-0.9-11.4-1.9-18.2c-0.6-3.2-1.3-6.2-2-9.2c-1.4,2.8-4.5,11.5-4.3,10.4c0.4-1.4,0-24.8,0-24.8l0.3-0.4
			c-3.2-9.9-6.8-15.9-10.4-15.9c-3.7,0-7.2,6-10.4,15.8l0.4,0.5c0,0-0.4,23.4,0,24.8c0.3,1.1-3-7.9-4.4-10.6
			c-0.5,2.3-1.1,4.7-1.6,7.2c-1,7.1-2.5,16.9-2.2,20.4c0.4,5.3,2.1,18.4,2.1,18.4s-5.7-8.9-4.6-5.3c1.1,3.5,0,34.7,0,34.7
			s-2.1-9.5-3.6-13c-0.5,4.4-0.9,8.8-1.4,13.2c0.3,12.2,1.2,28.3,1.4,31.3c0.4,4.6,2.1,11.7,2.1,11.7s-5.7-15.2-5.3-12.8
			c0.4,2.5-1.1,33.3,0.4,39c1.4,5.7,1.4,5.7,1.4,5.7l-3.8-3.1c0.7,51.5,13.6,46.3,29.4,46.3c15.8,0,28.7,5.2,29.4-46.2L301.9,330.1z
			"/>
		<polygon class="st4" points="294,309.9 276.8,334.7 276,285.4 293.7,265.3 275.9,280.3 275.2,235.8 273.4,303.3 259,284.1 
			273.1,311.7 269.4,447.3 278.5,447.3 277,346.1 		"/>
	</g>
	<g>
		<path class="st0" d="M82.2,330.1c0,0,0,0,1.4-5.7c1.4-5.7,0-36.5,0.4-39c0.4-2.5-5.3,12.8-5.3,12.8s1.8-7.1,2.1-11.7
			c0.2-3,1.1-18.2,1.4-30.3c-0.4-4.7-0.9-9.3-1.4-14c-1.5,3.7-3.5,12.8-3.5,12.8s-1.1-31.2,0-34.7c1.1-3.5-4.6,5.3-4.6,5.3
			s1.8-13.1,2.1-18.4c0.2-3.1-0.9-11.4-1.9-18.2c-0.6-3.2-1.3-6.2-2-9.2c-1.4,2.8-4.5,11.5-4.3,10.4c0.4-1.4,0-24.8,0-24.8l0.3-0.4
			c-3.2-9.9-6.8-15.9-10.4-15.9c-3.7,0-7.2,6-10.4,15.8l0.4,0.5c0,0-0.4,23.4,0,24.8c0.3,1.1-3-7.9-4.4-10.6
			c-0.5,2.3-1.1,4.7-1.6,7.2c-1,7.1-2.5,16.9-2.2,20.4c0.4,5.3,2.1,18.4,2.1,18.4s-5.7-8.9-4.6-5.3c1.1,3.5,0,34.7,0,34.7
			s-2.1-9.5-3.6-13c-0.5,4.4-0.9,8.8-1.4,13.2c0.3,12.2,1.2,28.3,1.4,31.3c0.4,4.6,2.1,11.7,2.1,11.7S28.6,283,29,285.5
			c0.4,2.5-1.1,33.3,0.4,39s1.4,5.7,1.4,5.7l-3.8-3.1c0.7,51.5,13.6,46.3,29.4,46.3c15.8,0,28.7,5.2,29.4-46.2L82.2,330.1z"/>
		<path class="st3" d="M82.2,330.1c0,0,0,0,1.4-5.7c1.4-5.7,0-36.5,0.4-39c0.4-2.5-5.3,12.8-5.3,12.8s1.8-7.1,2.1-11.7
			c0.2-3,1.1-18.2,1.4-30.3c-0.4-4.7-0.9-9.3-1.4-14c-1.5,3.7-3.5,12.8-3.5,12.8s-1.1-31.2,0-34.7c1.1-3.5-4.6,5.3-4.6,5.3
			s1.8-13.1,2.1-18.4c0.2-3.1-0.9-11.4-1.9-18.2c-0.6-3.2-1.3-6.2-2-9.2c-1.4,2.8-4.5,11.5-4.3,10.4c0.4-1.4,0-24.8,0-24.8l0.3-0.4
			c-3.2-9.9-6.8-15.9-10.4-15.9c-3.7,0-7.2,6-10.4,15.8l0.4,0.5c0,0-0.4,23.4,0,24.8c0.3,1.1-3-7.9-4.4-10.6
			c-0.5,2.3-1.1,4.7-1.6,7.2c-1,7.1-2.5,16.9-2.2,20.4c0.4,5.3,2.1,18.4,2.1,18.4s-5.7-8.9-4.6-5.3c1.1,3.5,0,34.7,0,34.7
			s-2.1-9.5-3.6-13c-0.5,4.4-0.9,8.8-1.4,13.2c0.3,12.2,1.2,28.3,1.4,31.3c0.4,4.6,2.1,11.7,2.1,11.7S28.6,283,29,285.5
			c0.4,2.5-1.1,33.3,0.4,39s1.4,5.7,1.4,5.7l-3.8-3.1c0.7,51.5,13.6,46.3,29.4,46.3c15.8,0,28.7,5.2,29.4-46.2L82.2,330.1z"/>
		<polygon class="st4" points="74.3,309.9 57.1,334.7 56.3,285.4 74,265.3 56.2,280.3 55.5,235.8 53.7,303.3 39.3,284.1 53.4,311.7 
			49.7,447.3 58.8,447.3 57.2,346.1 		"/>
	</g>
	<g>
		<path class="st0" d="M158.5,297.9c0,0,0,0,1.8-7.2c1.8-7.2,0-46.5,0.5-49.7c0.5-3.2-6.8,16.3-6.8,16.3s2.3-9,2.7-14.9
			c0.3-3.8,1.3-23.3,1.8-38.6c-0.6-5.9-1.2-11.9-1.8-17.9c-1.9,4.7-4.5,16.3-4.5,16.3s-1.4-39.7,0-44.3c1.4-4.5-5.9,6.8-5.9,6.8
			s2.3-16.7,2.7-23.5c0.3-4-1.2-14.6-2.4-23.3c-0.8-4.1-1.6-8-2.5-11.7c-1.8,3.6-5.8,14.6-5.4,13.2c0.5-1.8,0-31.6,0-31.6l0.3-0.5
			c-4.1-12.7-8.6-20.3-13.3-20.3c-4.7,0-9.1,7.6-13.3,20.2l0.4,0.6c0,0-0.5,29.8,0,31.6c0.4,1.4-3.8-10.1-5.6-13.5
			c-0.7,2.9-1.3,6-2,9.1c-1.3,9-3.1,21.6-2.8,26c0.5,6.8,2.7,23.5,2.7,23.5s-7.2-11.3-5.9-6.8c1.4,4.5,0,44.3,0,44.3
			s-2.7-12.1-4.6-16.6c-0.6,5.6-1.2,11.2-1.7,16.9c0.4,15.5,1.5,36,1.8,39.9c0.5,5.9,2.7,14.9,2.7,14.9s-7.2-19.4-6.8-16.3
			s-1.4,42.5,0.5,49.7c1.8,7.2,1.8,7.2,1.8,7.2l-4.8-3.9c0.9,65.7,17.3,59,37.5,59c20.1,0,36.6,6.7,37.5-58.9L158.5,297.9z"/>
		<path class="st3" d="M158.5,297.9c0,0,0,0,1.8-7.2c1.8-7.2,0-46.5,0.5-49.7c0.5-3.2-6.8,16.3-6.8,16.3s2.3-9,2.7-14.9
			c0.3-3.8,1.3-23.3,1.8-38.6c-0.6-5.9-1.2-11.9-1.8-17.9c-1.9,4.7-4.5,16.3-4.5,16.3s-1.4-39.7,0-44.3c1.4-4.5-5.9,6.8-5.9,6.8
			s2.3-16.7,2.7-23.5c0.3-4-1.2-14.6-2.4-23.3c-0.8-4.1-1.6-8-2.5-11.7c-1.8,3.6-5.8,14.6-5.4,13.2c0.5-1.8,0-31.6,0-31.6l0.3-0.5
			c-4.1-12.7-8.6-20.3-13.3-20.3c-4.7,0-9.1,7.6-13.3,20.2l0.4,0.6c0,0-0.5,29.8,0,31.6c0.4,1.4-3.8-10.1-5.6-13.5
			c-0.7,2.9-1.3,6-2,9.1c-1.3,9-3.1,21.6-2.8,26c0.5,6.8,2.7,23.5,2.7,23.5s-7.2-11.3-5.9-6.8c1.4,4.5,0,44.3,0,44.3
			s-2.7-12.1-4.6-16.6c-0.6,5.6-1.2,11.2-1.7,16.9c0.4,15.5,1.5,36,1.8,39.9c0.5,5.9,2.7,14.9,2.7,14.9s-7.2-19.4-6.8-16.3
			s-1.4,42.5,0.5,49.7c1.8,7.2,1.8,7.2,1.8,7.2l-4.8-3.9c0.9,65.7,17.3,59,37.5,59c20.1,0,36.6,6.7,37.5-58.9L158.5,297.9z"/>
		<polygon class="st4" points="148.5,272.2 126.5,303.7 125.5,240.9 148.1,215.3 125.4,234.4 124.5,177.7 122.2,263.7 103.8,239.2 
			121.9,274.5 117.2,447.3 128.7,447.3 126.7,318.3 		"/>
	</g>
</g>
<g id="Windmill">
	<g>
		<polygon class="st5" points="386,62.5 394.6,91.9 400,89.7 396.3,56.7 		"/>
		<polygon class="st5" points="370,72.3 388.1,97 392.4,93 377.7,63.3 		"/>
		<polygon class="st5" points="358.3,87 383.8,104 386.5,98.7 362.4,75.9 		"/>
		<polygon class="st5" points="352.3,104.7 382.1,112 382.8,106.2 352.4,92.9 		"/>
		<polygon class="st5" points="352.8,123.5 383.2,120.2 381.9,114.4 348.8,112.3 		"/>
		<polygon class="st5" points="359.6,141 387.1,127.4 383.9,122.5 352.1,131.8 		"/>
		<polygon class="st5" points="372,155 393.2,132.9 388.5,129.3 361.8,149 		"/>
		<polygon class="st5" points="388.5,164 400.9,136 395.2,134.2 376.9,161.9 		"/>
		<polygon class="st5" points="407.1,166.8 409.1,136.2 403.2,136.5 395.4,168.8 		"/>
		<polygon class="st5" points="425.5,163.1 416.9,133.7 411.4,136 415.2,168.9 		"/>
		<polygon class="st5" points="441.5,153.3 423.3,128.6 419,132.6 433.8,162.3 		"/>
		<polygon class="st5" points="453.2,138.7 427.7,121.6 425,126.9 449,149.8 		"/>
		<polygon class="st5" points="459.2,120.9 429.4,113.6 428.6,119.4 459.1,132.7 		"/>
		<polygon class="st5" points="458.7,102.1 428.2,105.5 429.5,111.2 462.7,113.3 		"/>
		<polygon class="st5" points="451.8,84.7 424.3,98.2 427.5,103.2 459.4,93.8 		"/>
		<polygon class="st5" points="439.4,70.6 418.2,92.7 422.9,96.3 449.6,76.6 		"/>
		<polygon class="st5" points="423,61.6 410.6,89.7 416.2,91.4 434.6,63.7 		"/>
		<polygon class="st5" points="404.4,58.8 402.4,89.4 408.3,89.1 416.1,56.8 		"/>
		
			<ellipse transform="matrix(0.9196 -0.3929 0.3929 0.9196 -11.694 168.4819)" class="st2" cx="405.7" cy="112.8" rx="42.9" ry="42.9"/>
		<circle class="st2" cx="405.7" cy="112.8" r="23.7"/>
		<line class="st2" x1="405.5" y1="119.5" x2="362" y2="448.5"/>
		<line class="st2" x1="405.5" y1="119.5" x2="448.9" y2="448.5"/>
		<line class="st6" x1="405.5" y1="119.5" x2="405.5" y2="448.5"/>
		<polygon class="st7" points="398.4,122.7 412.5,122.7 412.5,115 401.6,95.7 395.8,95.7 398.4,114.4 		"/>
		<polygon class="st8" points="336.7,115.6 348.3,127.9 340.6,145.2 292.4,158.7 288.5,118.9 		"/>
		<line class="st9" x1="405.5" y1="129.1" x2="327.1" y2="129.1"/>
		<line class="st10" x1="384.9" y1="187" x2="425.4" y2="187"/>
		<line class="st9" x1="393.3" y1="212.7" x2="418.4" y2="212.7"/>
		<line class="st9" x1="390" y1="241" x2="421.6" y2="241"/>
		<line class="st9" x1="384.5" y1="281.8" x2="427.2" y2="281.8"/>
		<line class="st9" x1="377.3" y1="334" x2="434.3" y2="334"/>
		<line class="st9" x1="368.1" y1="395.9" x2="441.8" y2="395.9"/>
	</g>
</g>
<g id="Farm_Tractor">
	<g>
		<path class="st7" d="M27.9,373.1l-1.2,4.1L24,376c0-2.1-1.7-3.8-3.8-3.8c-2.1,0-3.8,1.7-3.8,3.8c0,2.1,1.7,3.8,3.8,3.8
			c0.9,0,1.8-0.4,2.4-0.9l2.2,1.2l-1.1,4.8l8,3l3.5-12.2L27.9,373.1z"/>
		<path class="st7" d="M51.1,337.7l25.2,3.9v62H290l1.6-8.1h12.1c3.7,0,7.2-1.5,9.7-4.2l0,0v-2.9l-7.9-2.9v-3.4h8.1v-1.3
			c0-2-1.2-3.9-3.1-4.7l-14.2-5.8l-15.5-5h-99.2v12.6H154c0,0,2.4-6.3-9.7-23.4c-12.1-17.1-18.4-22.6-24.7-26.5
			c-6.3-3.9-0.8-5-16.5-7.1c-15.8-2.1-28.4-1.1-28.4-1.1l-3.9,7.4H59.5L51.1,337.7z"/>
		<g>
			<path class="st11" d="M180.3,317.7c0,0,15.5-1.9,25.1-0.8c9.6,1.1,23.2,10.7,23.2,10.7s36.1,4.3,47.3,9.9
				c11.2,5.6,11.5,15,11.2,20c-0.3,5.1-6.1,21.9-6.1,21.9s-48.9-12.6-98.3-12.3l-1.6-43L180.3,317.7z"/>
			<path class="st2" d="M219.7,327.1c1.9,0.2,3.7,0.4,5.5,0.6"/>
			<path class="st2" d="M184.8,326.4c0,0,16.3-0.7,32,0.5"/>
			<g>
				<path class="st2" d="M277.6,344c1.8,0.3,3.4,0.6,4.8,0.9"/>
				<path class="st2" d="M192.4,341c0,0,54.4-0.8,81.3,2.5"/>
			</g>
		</g>
		<path class="st5" d="M123.6,306.7l-7.8-1.7v8.9l7.8-1.7C126.5,311.4,126.5,307.3,123.6,306.7z"/>
		<g>
			<path class="st5" d="M197.4,341h-5.1v-78c1-10.2,10.3-9.9,10.6-10.1l-1.2,4.8l-0.9-2.4l0.9,2.4c-0.2,0.1-4.3,1.7-4.3,5.3V341z"/>
		</g>
		<path class="st7" d="M174.2,316.3l-24.8,24l9.6,12.8c0,0,3.7,0.5,9.6,3.5c5.9,2.9,7.2,10.4,7.2,10.4h6.9v-48.6L174.2,316.3z"/>
		
			<ellipse transform="matrix(0.9874 -0.1582 0.1582 0.9874 -61.2072 45.7422)" class="st7" cx="256.8" cy="407.4" rx="41.1" ry="41.1"/>
		
			<ellipse transform="matrix(0.4336 -0.9011 0.9011 0.4336 -221.6924 462.1844)" class="st9" cx="256.8" cy="407.4" rx="26.8" ry="26.8"/>
		
			<ellipse transform="matrix(0.3883 -0.9215 0.9215 0.3883 -218.388 485.8495)" class="st7" cx="256.8" cy="407.4" rx="24" ry="24"/>
		<path class="st9" d="M276.5,407.4c0-3.9,2.1-8.4,0.3-11.6c-1.9-3.2-6.9-3.6-10.1-5.5c-3.1-1.8-6-6-9.9-6c-3.9,0-6.7,4.2-9.9,6
			c-3.2,1.9-8.3,2.3-10.1,5.5c-1.8,3.1,0.3,7.7,0.3,11.6s-2.1,8.4-0.3,11.6c1.9,3.2,6.9,3.6,10.1,5.5c3.1,1.8,6,6,9.9,6
			c3.9,0,6.7-4.2,9.9-6c3.2-1.9,8.3-2.3,10.1-5.5C278.6,415.8,276.5,411.3,276.5,407.4z"/>
		
			<ellipse transform="matrix(0.9872 -0.1597 0.1597 0.9872 -61.7874 46.2531)" class="st7" cx="256.8" cy="407.4" rx="8.8" ry="8.8"/>
		<g>
			<path class="st12" d="M254.4,366.7c0,0-2.2,1.7-2.5,3.5c-0.3,1.7,1,1.8,1.5,1.7s2.6,0.2,4-0.5c1.4-0.8,4-4.4,4-4.4
				S256.7,365.9,254.4,366.7z"/>
			<path class="st12" d="M243,369c0,0-1.6,2.3-1.4,4c0.2,1.7,1.4,1.5,1.9,1.2c0.5-0.3,2.5-0.5,3.7-1.6c1.1-1.1,2.6-5.4,2.6-5.4
				S245,367.7,243,369z"/>
			<path class="st12" d="M232.7,374.5c0,0-0.9,2.6-0.2,4.2c0.7,1.6,1.8,1,2.2,0.6c0.4-0.4,2.3-1.2,3.1-2.6c0.8-1.4,1-5.9,1-5.9
				S234.2,372.6,232.7,374.5z"/>
			<path class="st12" d="M224.4,382.6c0,0-0.1,2.8,1,4.1c1.1,1.4,2,0.5,2.3,0c0.3-0.5,1.9-1.8,2.2-3.4c0.3-1.6-0.7-5.9-0.7-5.9
				S225.3,380.4,224.4,382.6z"/>
			<path class="st12" d="M218.7,392.7c0,0,0.7,2.7,2.1,3.7c1.4,1,2.1-0.1,2.2-0.7c0.1-0.5,1.3-2.3,1.2-3.9c-0.1-1.6-2.4-5.5-2.4-5.5
				S219,390.3,218.7,392.7z"/>
			<path class="st12" d="M216.1,404c0,0,1.4,2.4,3.1,3c1.7,0.6,2-0.7,1.9-1.3c0-0.5,0.6-2.5,0-4c-0.5-1.5-3.8-4.6-3.8-4.6
				S215.7,401.7,216.1,404z"/>
			<path class="st12" d="M216.8,415.6c0,0,2,1.9,3.8,2c1.8,0.1,1.7-1.2,1.5-1.7c-0.2-0.5-0.2-2.6-1.1-3.9c-0.9-1.3-5-3.3-5-3.3
				S215.7,413.5,216.8,415.6z"/>
			<path class="st12" d="M220.7,426.6c0,0,2.5,1.2,4.2,0.8c1.7-0.4,1.3-1.6,0.9-2.1c-0.3-0.4-0.9-2.4-2.2-3.4
				c-1.3-1-5.7-1.8-5.7-1.8S219.1,424.8,220.7,426.6z"/>
			<path class="st12" d="M227.6,435.9c0,0,2.7,0.5,4.2-0.4c1.5-0.9,0.8-1.9,0.3-2.3c-0.4-0.3-1.5-2.1-3-2.7c-1.5-0.6-6-0.1-6-0.1
				S225.5,434.7,227.6,435.9z"/>
			<path class="st12" d="M236.8,443c0,0,2.8-0.3,4-1.6c1.2-1.3,0.2-2.1-0.3-2.3c-0.5-0.2-2.1-1.6-3.7-1.7c-1.6-0.1-5.8,1.6-5.8,1.6
				S234.5,442.4,236.8,443z"/>
			<path class="st12" d="M247.6,447.2c0,0,2.6-1,3.4-2.6c0.8-1.6-0.4-2-1-2.1c-0.5,0-2.4-0.9-4-0.6c-1.6,0.3-5.1,3.1-5.1,3.1
				S245.2,447.3,247.6,447.2z"/>
			<path class="st12" d="M259.2,448.2c0,0,2.2-1.7,2.5-3.5c0.3-1.7-1-1.8-1.5-1.7c-0.5,0.1-2.6-0.2-4,0.5c-1.4,0.8-4,4.4-4,4.4
				S256.9,448.9,259.2,448.2z"/>
			<path class="st12" d="M270.6,445.9c0,0,1.6-2.3,1.4-4c-0.2-1.7-1.4-1.5-1.9-1.2c-0.5,0.3-2.5,0.5-3.7,1.6s-2.6,5.4-2.6,5.4
				S268.6,447.2,270.6,445.9z"/>
			<path class="st12" d="M280.9,440.4c0,0,0.9-2.6,0.2-4.2s-1.8-1-2.2-0.6c-0.4,0.4-2.3,1.2-3.1,2.6c-0.8,1.4-1,5.9-1,5.9
				S279.4,442.3,280.9,440.4z"/>
			<path class="st12" d="M289.2,432.3c0,0,0.1-2.8-1-4.1c-1.1-1.4-2-0.5-2.3,0c-0.3,0.5-1.9,1.8-2.2,3.4c-0.3,1.6,0.7,5.9,0.7,5.9
				S288.3,434.5,289.2,432.3z"/>
			<path class="st12" d="M294.9,422.2c0,0-0.7-2.7-2.1-3.7c-1.4-1-2.1,0.1-2.2,0.7c-0.1,0.5-1.3,2.3-1.2,3.9
				c0.1,1.6,2.4,5.5,2.4,5.5S294.6,424.5,294.9,422.2z"/>
			<path class="st12" d="M297.5,410.8c0,0-1.4-2.4-3.1-3c-1.7-0.6-2,0.7-1.9,1.3c0,0.5-0.6,2.5,0,4c0.5,1.5,3.8,4.6,3.8,4.6
				S297.9,413.2,297.5,410.8z"/>
			<path class="st12" d="M296.8,399.2c0,0-2-1.9-3.8-2c-1.8-0.1-1.7,1.2-1.5,1.7c0.2,0.5,0.2,2.6,1.1,3.9c0.9,1.3,5,3.3,5,3.3
				S297.9,401.4,296.8,399.2z"/>
			<path class="st12" d="M292.9,388.3c0,0-2.5-1.2-4.2-0.8c-1.7,0.4-1.3,1.6-0.9,2.1c0.3,0.4,0.9,2.4,2.2,3.4c1.3,1,5.7,1.8,5.7,1.8
				S294.5,390.1,292.9,388.3z"/>
			<path class="st12" d="M286,378.9c0,0-2.7-0.5-4.2,0.4c-1.5,0.9-0.8,1.9-0.3,2.3c0.4,0.3,1.5,2.1,3,2.7c1.5,0.6,6,0.1,6,0.1
				S288.1,380.1,286,378.9z"/>
			<path class="st12" d="M276.8,371.9c0,0-2.8,0.3-4,1.6c-1.2,1.3-0.2,2.1,0.3,2.3c0.5,0.2,2.1,1.6,3.7,1.7c1.6,0.1,5.8-1.6,5.8-1.6
				S279.1,372.4,276.8,371.9z"/>
			<path class="st12" d="M266,367.7c0,0-2.6,1-3.4,2.6c-0.8,1.6,0.4,2,1,2.1c0.5,0,2.4,0.9,4,0.6c1.6-0.3,5.1-3.1,5.1-3.1
				S268.4,367.6,266,367.7z"/>
		</g>
		<ellipse transform="matrix(0.9741 -0.2263 0.2263 0.9741 -86.4698 29.6225)" class="st7" cx="86" cy="392" rx="56.6" ry="56.6"/>
		<ellipse transform="matrix(0.9873 -0.1587 0.1587 0.9873 -61.1011 18.6051)" class="st9" cx="86" cy="392" rx="37" ry="37"/>
		<ellipse transform="matrix(0.9739 -0.2269 0.2269 0.9739 -86.6794 29.7224)" class="st7" cx="86" cy="392" rx="33" ry="33"/>
		<path class="st9" d="M85,419.1c5.4,0.2,11.5,3.3,15.9,1c4.6-2.4,5.3-9.3,8.1-13.7c2.7-4.2,8.6-7.9,8.8-13.3
			c0.2-5.4-5.5-9.4-7.8-13.8c-2.4-4.6-2.7-11.5-7.1-14.2c-4.2-2.7-10.5,0-15.9-0.2c-5.4-0.2-11.5-3.3-15.9-1
			c-4.6,2.4-5.3,9.3-8.1,13.7c-2.7,4.2-8.6,7.9-8.8,13.3c-0.2,5.4,5.5,9.4,7.8,13.8c2.4,4.6,2.7,11.5,7.1,14.2
			C73.4,421.6,79.7,418.9,85,419.1z"/>
		<ellipse transform="matrix(0.9916 -0.1294 0.1294 0.9916 -49.9887 14.4167)" class="st7" cx="86" cy="392" rx="12.1" ry="12.1"/>
		<g>
			<path class="st12" d="M82.6,335.9c0,0-3,2.4-3.4,4.8s1.3,2.5,2.1,2.4c0.7-0.1,3.6,0.3,5.5-0.7c1.9-1,5.5-6.1,5.5-6.1
				S85.8,334.8,82.6,335.9z"/>
			<path class="st12" d="M67,339.1c0,0-2.2,3.1-1.9,5.5c0.2,2.4,2,2,2.7,1.7c0.7-0.4,3.5-0.7,5.1-2.3c1.6-1.5,3.6-7.4,3.6-7.4
				S69.7,337.2,67,339.1z"/>
			<path class="st12" d="M52.8,346.6c0,0-1.2,3.6-0.3,5.9c0.9,2.2,2.5,1.4,3,0.9c0.5-0.5,3.2-1.7,4.2-3.6c1.1-1.9,1.3-8.1,1.3-8.1
				S54.9,344,52.8,346.6z"/>
			<path class="st12" d="M41.4,357.7c0,0-0.1,3.8,1.4,5.7c1.5,1.9,2.8,0.6,3.2,0c0.4-0.7,2.6-2.5,3-4.6c0.5-2.1-1-8.1-1-8.1
				S42.7,354.7,41.4,357.7z"/>
			<path class="st12" d="M33.6,371.7c0,0,0.9,3.7,2.9,5.1c2,1.4,2.9-0.2,3-0.9c0.2-0.7,1.8-3.1,1.6-5.3c-0.1-2.2-3.3-7.5-3.3-7.5
				S33.9,368.4,33.6,371.7z"/>
			<path class="st12" d="M30,387.3c0,0,1.9,3.3,4.2,4.1c2.3,0.8,2.7-1,2.7-1.7c0-0.8,0.8-3.5,0-5.6c-0.8-2.1-5.3-6.3-5.3-6.3
				S29.4,384,30,387.3z"/>
			<path class="st12" d="M30.9,403.2c0,0,2.8,2.6,5.2,2.7c2.4,0.1,2.3-1.7,2.1-2.4c-0.3-0.7-0.2-3.6-1.5-5.3
				c-1.3-1.8-6.8-4.6-6.8-4.6S29.4,400.3,30.9,403.2z"/>
			<path class="st12" d="M36.3,418.3c0,0,3.4,1.7,5.7,1.1s1.7-2.3,1.3-2.9c-0.4-0.6-1.2-3.4-3-4.7c-1.7-1.3-7.8-2.5-7.8-2.5
				S34.1,415.9,36.3,418.3z"/>
			<path class="st12" d="M45.7,431.2c0,0,3.7,0.7,5.8-0.5c2.1-1.2,1-2.7,0.4-3.1c-0.6-0.5-2.1-2.9-4.2-3.7c-2.1-0.8-8.2-0.2-8.2-0.2
				S42.9,429.5,45.7,431.2z"/>
			<path class="st12" d="M58.4,441c0,0,3.8-0.4,5.4-2.2c1.7-1.8,0.2-2.8-0.5-3.1c-0.7-0.3-2.8-2.2-5-2.3s-7.9,2.2-7.9,2.2
				S55.2,440.1,58.4,441z"/>
			<path class="st12" d="M73.3,446.7c0,0,3.5-1.4,4.6-3.6c1.1-2.2-0.6-2.8-1.3-2.9c-0.8-0.1-3.3-1.3-5.5-0.8c-2.1,0.5-7,4.3-7,4.3
				S70.1,446.8,73.3,446.7z"/>
			<path class="st12" d="M89.3,448.1c0,0,3-2.4,3.4-4.8c0.4-2.4-1.3-2.5-2.1-2.4c-0.7,0.1-3.6-0.3-5.5,0.7c-1.9,1-5.5,6.1-5.5,6.1
				S86.2,449.1,89.3,448.1z"/>
			<path class="st12" d="M105,444.9c0,0,2.2-3.1,1.9-5.5c-0.2-2.4-2-2-2.7-1.7c-0.7,0.4-3.5,0.7-5.1,2.3c-1.6,1.5-3.6,7.4-3.6,7.4
				S102.3,446.7,105,444.9z"/>
			<path class="st12" d="M119.1,437.4c0,0,1.2-3.6,0.3-5.9c-0.9-2.2-2.5-1.4-3-0.9c-0.5,0.5-3.2,1.7-4.2,3.6
				c-1.1,1.9-1.3,8.1-1.3,8.1S117,439.9,119.1,437.4z"/>
			<path class="st12" d="M130.5,426.2c0,0,0.1-3.8-1.4-5.7c-1.5-1.9-2.8-0.6-3.2,0c-0.4,0.7-2.6,2.5-3,4.6c-0.5,2.1,1,8.1,1,8.1
				S129.3,429.2,130.5,426.2z"/>
			<path class="st12" d="M138.4,412.2c0,0-0.9-3.7-2.9-5.1c-2-1.4-2.9,0.2-3,0.9c-0.2,0.7-1.8,3.1-1.6,5.3c0.1,2.2,3.3,7.5,3.3,7.5
				S138,415.5,138.4,412.2z"/>
			<path class="st12" d="M142,396.7c0,0-1.9-3.3-4.2-4.1c-2.3-0.8-2.7,1-2.7,1.7c0,0.8-0.8,3.5,0,5.6c0.8,2.1,5.3,6.3,5.3,6.3
				S142.6,399.9,142,396.7z"/>
			<path class="st12" d="M141,380.7c0,0-2.8-2.6-5.2-2.7c-2.4-0.1-2.3,1.7-2.1,2.4c0.3,0.7,0.2,3.6,1.5,5.3c1.3,1.8,6.8,4.6,6.8,4.6
				S142.5,383.6,141,380.7z"/>
			<path class="st12" d="M135.6,365.6c0,0-3.4-1.7-5.7-1.1c-2.3,0.6-1.7,2.3-1.3,2.9c0.4,0.6,1.2,3.4,3,4.7c1.7,1.3,7.8,2.5,7.8,2.5
				S137.9,368,135.6,365.6z"/>
			<path class="st12" d="M126.2,352.7c0,0-3.7-0.7-5.8,0.5c-2.1,1.2-1,2.7-0.4,3.1c0.6,0.5,2.1,2.9,4.2,3.7c2.1,0.8,8.2,0.2,8.2,0.2
				S129,354.4,126.2,352.7z"/>
			<path class="st12" d="M113.5,343c0,0-3.8,0.4-5.4,2.2c-1.7,1.8-0.2,2.8,0.5,3.1c0.7,0.3,2.8,2.2,5,2.3c2.2,0.2,7.9-2.2,7.9-2.2
				S116.7,343.8,113.5,343z"/>
			<path class="st12" d="M98.6,337.2c0,0-3.5,1.4-4.6,3.6c-1.1,2.2,0.6,2.8,1.3,2.9c0.8,0.1,3.3,1.3,5.5,0.8s7-4.3,7-4.3
				S101.9,337.1,98.6,337.2z"/>
		</g>
		<path class="st11" d="M56.6,326.4L44,340.9h7.4c0,0,8.7-9.7,12.1-10.8c3.4-1.1,37-2.9,49.6,3.2c12.6,6,19.2,14.4,24.9,24.9
			c5.8,10.5,9.5,21.5,9.5,21.5l3.2-12.1c0,0-14.7-27.8-28.1-36c-13.4-8.1-21.8-7.1-33.1-8.1c-11.3-1.1-30.5,0-30.5,0L56.6,326.4z"/>
		<rect x="151.9" y="382.4" class="st12" width="27.3" height="17.1"/>
		<rect x="157.7" y="400.5" class="st12" width="24.7" height="3.7"/>
		<path class="st7" d="M163.4,312.3l-20.8,11.2c-0.7,0.4-0.4,1.4,0.3,1.4h7.3l7.4,11.4l5.9-3.8l-6.1-10.4l6.8-8.8
			C164.6,312.8,164,312,163.4,312.3z"/>
		<polygon class="st7" points="152.6,367.2 165.8,367.2 163.6,350.2 182,350.2 182,377.4 154,377.9 		"/>
		<polygon class="st13" points="173.2,283.3 124.9,331.6 139,341.5 176.3,304.2 		"/>
		<polygon class="st13" points="115.8,266.1 73.9,294.2 78.3,258.6 115,257.9 		"/>
		<g>
			<path class="st5" d="M184.8,379.9h-32.7l-0.3-2.2c-3.6-24-20.9-40.5-31-48.1c-13.7-10.4-47.2-7.9-47.6-7.9l-3,0.2l5.2-62.9
				l5.1,0.4l-4.7,57c8.9-0.4,35.3-0.7,48.1,9.1c17.7,13.5,29.2,30.9,32.6,49.3h23.3c-0.2-16.5-0.8-52.9-2.1-58.8
				c-1.7-7.9-9.6-55.3-9.9-57.3l5-0.8c0.1,0.5,8.2,49.3,9.9,57.1c1.8,8.1,2.3,60.2,2.3,62.4L184.8,379.9z"/>
		</g>
		<rect x="111.9" y="260.5" class="st5" width="5.4" height="63.7"/>
		<path class="st5" d="M123.6,267.8l-7.8-1.7v8.9l7.8-1.7C126.5,272.6,126.5,268.4,123.6,267.8z"/>
		<path class="st6" d="M176.3,290.3l2.9,1.4c2.9,1.5,5,4.3,5.6,7.5c1.3,7.1,3.4,19.7,3.4,25.8c0,5.8,0.3,14.5,0.6,19.9
			c0.1,3.1-1.1,6.1-3.4,8.2l-2.9,2.6"/>
		<line class="st6" x1="176.6" y1="287.7" x2="176.6" y2="260.2"/>
		<path class="st6" d="M177.1,266.4h23.2c2.9,0,5.3,2.4,5.3,5.3v1.4"/>
		<path class="st7" d="M200.5,290.6h-1.3v-22.1h1.3c2.9,0,5.2,2.3,5.2,5.2v11.8C205.7,288.3,203.4,290.6,200.5,290.6z"/>
		<path class="st11" d="M183.5,262.5v-1.3c0-5.8-4.7-10.5-10.5-10.5H84.7c-5.8,0-10.5,4.7-10.5,10.5v1.3H183.5z"/>
	</g>
</g>
<g id="Floor">
	<line class="st2" x1="8.4" y1="448.5" x2="493.3" y2="448.5"/>
</g>
</svg>
